<svg transform="scale(1)" id="_0193_health_2" xmlns="http://www.w3.org/2000/svg" xmlns:xlink="http://www.w3.org/1999/xlink" viewBox="0 0 500 500" class="show_show__wrapper__graphic__5Waiy "><title>React</title><defs><style>.cls-1{fill:url(#linear-gradient);}.cls-1,.cls-2,.cls-3,.cls-4,.cls-5,.cls-6,.cls-7,.cls-8,.cls-9,.cls-10,.cls-11,.cls-12,.cls-13,.cls-14,.cls-15,.cls-16,.cls-17,.cls-18,.cls-19,.cls-20,.cls-21,.cls-22,.cls-23,.cls-24,.cls-25,.cls-26,.cls-27,.cls-28,.cls-29,.cls-30,.cls-31,.cls-32,.cls-33,.cls-34,.cls-35,.cls-36,.cls-37{stroke-width:0px;}.cls-2{fill:url(#linear-gradient-29);}.cls-3{fill:url(#linear-gradient-32);}.cls-4{fill:url(#linear-gradient-30);}.cls-5{fill:url(#linear-gradient-31);}.cls-6{fill:url(#linear-gradient-28);}.cls-7{fill:url(#linear-gradient-25);}.cls-8{fill:url(#linear-gradient-11);}.cls-9{fill:url(#linear-gradient-12);}.cls-10{fill:url(#linear-gradient-13);}.cls-11{fill:url(#linear-gradient-10);}.cls-12{fill:url(#linear-gradient-17);}.cls-13{fill:url(#linear-gradient-16);}.cls-14{fill:url(#linear-gradient-19);}.cls-15{fill:url(#linear-gradient-15);}.cls-16{fill:url(#linear-gradient-23);}.cls-17{fill:url(#linear-gradient-21);}.cls-18{fill:url(#linear-gradient-18);}.cls-19{fill:url(#linear-gradient-14);}.cls-20{fill:url(#linear-gradient-22);}.cls-21{fill:url(#linear-gradient-20);}.cls-22{fill:url(#linear-gradient-27);}.cls-23{fill:url(#linear-gradient-24);}.cls-24{fill:url(#linear-gradient-26);}.cls-38{fill:none;stroke:#68e1fd;stroke-miterlimit:10;stroke-width:3.3px;}.cls-25{fill:url(#linear-gradient-4);}.cls-26{fill:url(#linear-gradient-2);}.cls-27{fill:url(#linear-gradient-3);}.cls-28{fill:url(#linear-gradient-8);}.cls-29{fill:url(#linear-gradient-9);}.cls-30{fill:url(#linear-gradient-7);}.cls-31{fill:url(#linear-gradient-5);}.cls-32{fill:url(#linear-gradient-6);}.cls-33{isolation:isolate;opacity:.24;}.cls-33,.cls-37{fill:#115dc6;}.cls-34{fill:#606161;}.cls-35{fill:#fff;}.cls-36{fill:#ffb4a3;}</style><linearGradient id="linear-gradient" x1="345.19" y1="3827.83" x2="320.54" y2="3852.48" gradientTransform="translate(-30.07 4065.46) scale(1 -1)" gradientUnits="userSpaceOnUse"><stop offset="0" stop-color="#fff" stop-opacity="0"></stop><stop offset=".95" stop-color="#fff"></stop></linearGradient><linearGradient id="linear-gradient-2" x1="-1638.76" y1="3834.86" x2="-1541.87" y2="3844.41" gradientTransform="translate(-1241.96 4065.46) rotate(-180)" xlink:href="#linear-gradient"></linearGradient><linearGradient id="linear-gradient-3" x1="351.61" y1="3736.07" x2="379.23" y2="3948.92" gradientTransform="translate(-30.07 4065.46) scale(1 -1)" gradientUnits="userSpaceOnUse"><stop offset=".26" stop-color="#010101" stop-opacity="0"></stop><stop offset=".99" stop-color="#010101"></stop></linearGradient><linearGradient id="linear-gradient-4" x1="-1578.93" y1="3973.98" x2="-1575.02" y2="3963.6" gradientTransform="translate(-1241.96 4065.46) rotate(-180)" gradientUnits="userSpaceOnUse"><stop offset="0" stop-color="#010101" stop-opacity="0"></stop><stop offset=".95" stop-color="#010101"></stop></linearGradient><linearGradient id="linear-gradient-5" x1="-1575.94" y1="3917.91" x2="-1567.96" y2="3957.36" gradientTransform="translate(-1241.96 4065.46) rotate(-180)" gradientUnits="userSpaceOnUse"><stop offset=".12" stop-color="#010101" stop-opacity="0"></stop><stop offset=".95" stop-color="#010101"></stop></linearGradient><linearGradient id="linear-gradient-6" x1="-1579.49" y1="3636.7" x2="-1560.87" y2="3824.51" gradientTransform="translate(-1241.95 4065.46) rotate(-180)" xlink:href="#linear-gradient-5"></linearGradient><linearGradient id="linear-gradient-7" x1="-1587.96" y1="3886.35" x2="-1573.9" y2="3891.03" gradientTransform="translate(-1241.96 4065.46) rotate(-180)" xlink:href="#linear-gradient"></linearGradient><linearGradient id="linear-gradient-8" x1="-1550.62" y1="3892.08" x2="-1566.17" y2="3891.02" gradientTransform="translate(-1241.96 4065.46) rotate(-180)" gradientUnits="userSpaceOnUse"><stop offset="0" stop-color="#fff" stop-opacity="0"></stop><stop offset=".11" stop-color="#fff" stop-opacity=".18"></stop><stop offset=".29" stop-color="#fff" stop-opacity=".42"></stop><stop offset=".45" stop-color="#fff" stop-opacity=".63"></stop><stop offset=".6" stop-color="#fff" stop-opacity=".79"></stop><stop offset=".74" stop-color="#fff" stop-opacity=".9"></stop><stop offset=".86" stop-color="#fff" stop-opacity=".98"></stop><stop offset=".95" stop-color="#fff"></stop></linearGradient><linearGradient id="linear-gradient-9" x1="-1556.62" y1="3943.49" x2="-1564.74" y2="3945.17" xlink:href="#linear-gradient-5"></linearGradient><linearGradient id="linear-gradient-10" x1="-105.58" y1="3941.5" x2="-113.7" y2="3943.18" gradientTransform="translate(452.35 4065.46) scale(1 -1)" xlink:href="#linear-gradient-5"></linearGradient><linearGradient id="linear-gradient-11" x1="323.07" y1="3871.7" x2="396.73" y2="3834.3" xlink:href="#linear-gradient"></linearGradient><linearGradient id="linear-gradient-12" x1="248.88" y1="3670.04" x2="249.8" y2="3696.93" gradientTransform="translate(-31 4067.04) scale(1 -1)" xlink:href="#linear-gradient-5"></linearGradient><linearGradient id="linear-gradient-13" x1="164.51" y1="3644.22" x2="163.34" y2="3618.95" gradientTransform="translate(-30.07 4065.46) scale(1 -1)" xlink:href="#linear-gradient-5"></linearGradient><linearGradient id="linear-gradient-14" x1="150.77" y1="3645.61" x2="158.96" y2="3633.87" gradientTransform="translate(-30.07 4065.46) scale(1 -1)" xlink:href="#linear-gradient-5"></linearGradient><linearGradient id="linear-gradient-15" x1="134.19" y1="3636.68" x2="143.93" y2="3630.43" gradientTransform="translate(-30.07 4065.46) scale(1 -1)" xlink:href="#linear-gradient-5"></linearGradient><linearGradient id="linear-gradient-16" x1="172.64" y1="3633.19" x2="185.62" y2="3628.56" gradientTransform="translate(-30.07 4065.46) scale(1 -1)" xlink:href="#linear-gradient-5"></linearGradient><linearGradient id="linear-gradient-17" x1="270.46" y1="3721.28" x2="33.41" y2="3579.67" gradientTransform="translate(-30.07 4065.46) scale(1 -1)" xlink:href="#linear-gradient-5"></linearGradient><linearGradient id="linear-gradient-18" x1="259.31" y1="3715.36" x2="289.6" y2="3734.52" gradientTransform="translate(-30.07 4065.46) scale(1 -1)" xlink:href="#linear-gradient-5"></linearGradient><linearGradient id="linear-gradient-19" x1="164.67" y1="3745.23" x2="320.94" y2="3745.23" gradientTransform="translate(-30.07 4065.46) scale(1 -1)" xlink:href="#linear-gradient-5"></linearGradient><linearGradient id="linear-gradient-20" x1="164.67" y1="3748.36" x2="308.66" y2="3748.36" gradientTransform="translate(-30.07 4065.46) scale(1 -1)" xlink:href="#linear-gradient-5"></linearGradient><linearGradient id="linear-gradient-21" x1="230.83" y1="3800.53" x2="405.15" y2="3637.34" gradientTransform="translate(-30.07 4065.46) scale(1 -1)" xlink:href="#linear-gradient-5"></linearGradient><linearGradient id="linear-gradient-22" x1="252.4" y1="3775.55" x2="321.54" y2="3710.82" gradientTransform="translate(-30.07 4065.46) scale(1 -1)" xlink:href="#linear-gradient-5"></linearGradient><linearGradient id="linear-gradient-23" x1="253.19" y1="3813.66" x2="295.22" y2="3878.26" gradientTransform="translate(-30.07 4065.46) scale(1 -1)" xlink:href="#linear-gradient-5"></linearGradient><linearGradient id="linear-gradient-24" x1="196.51" y1="3718.53" x2="240.57" y2="3672.34" gradientTransform="translate(-30.07 4065.46) scale(1 -1)" xlink:href="#linear-gradient-5"></linearGradient><linearGradient id="linear-gradient-25" x1="153.6" y1="3717.9" x2="189.6" y2="3677.45" gradientTransform="translate(-30.07 4065.46) scale(1 -1)" xlink:href="#linear-gradient-5"></linearGradient><linearGradient id="linear-gradient-26" x1="271.61" y1="3728.74" x2="323.99" y2="3625.35" gradientTransform="translate(-30.07 4065.46) scale(1 -1)" xlink:href="#linear-gradient-5"></linearGradient><linearGradient id="linear-gradient-27" x1="217.41" y1="3642.91" x2="226.45" y2="3612.78" gradientTransform="translate(-30.07 4065.46) scale(1 -1)" xlink:href="#linear-gradient-5"></linearGradient><linearGradient id="linear-gradient-28" x1="219.49" y1="3642.5" x2="228.3" y2="3613.09" gradientTransform="translate(-30.07 4065.46) scale(1 -1)" xlink:href="#linear-gradient-5"></linearGradient><linearGradient id="linear-gradient-29" x1="195.84" y1="3688.66" x2="159.68" y2="3635.81" gradientTransform="translate(-30.07 4065.46) scale(1 -1)" xlink:href="#linear-gradient-5"></linearGradient><linearGradient id="linear-gradient-30" x1="293.67" y1="3677.13" x2="330" y2="3647.38" gradientTransform="translate(-31 4067.04) scale(1 -1)" xlink:href="#linear-gradient-5"></linearGradient><linearGradient id="linear-gradient-31" x1="234.95" y1="3678.12" x2="279.36" y2="3640.93" gradientTransform="translate(-31 4067.04) scale(1 -1)" xlink:href="#linear-gradient-5"></linearGradient><linearGradient id="linear-gradient-32" x1="181.18" y1="3750.51" x2="356.73" y2="3633.68" gradientTransform="translate(-30.07 4065.46) scale(1 -1)" xlink:href="#linear-gradient-5"></linearGradient></defs><g id="background"><path class="cls-33" d="M86.5,457.34c81.61,16.57,165.17,21.49,248.16,14.61,29.22-2.43,58.69-6.45,85.84-17.48,27.15-11.03,52.04-29.92,65.36-56.04s13.22-59.93-4.5-83.29c-10.5-13.85-26.77-24.21-31.47-40.94-3.58-12.84.54-26.38,3.23-39.41,4.08-19.8,4.55-41.35-4.8-59.28-17.43-33.42-61.28-42.8-87.08-70.28-7.16-7.6-12.82-16.54-20.45-23.64-11.58-10.85-27.01-16.72-42.45-20.38-45.7-10.82-97.97-2.45-131.53,30.4-13.61,13.32-23.57,29.9-32.11,46.92-17.49,34.84-30.29,73.28-57.46,101.23-17.32,17.79-39.8,30.51-54.75,50.37-16.73,22.23-22.14,52.53-14.17,79.18,4.56,15.23,13.2,29.3,15.24,45.07.87,6.79.5,13.81,2.54,20.35,6.88,22.06,42.42,18.96,60.41,22.61Z"></path><polygon class="cls-33" points="295.86 172.11 295.86 237.95 248.1 237.95 248.1 287.12 182.29 287.12 182.29 237.95 134.57 237.95 134.57 172.11 182.29 172.11 182.29 125.84 248.1 125.84 248.1 172.11 295.86 172.11"></polygon></g><g id="character_2"><path class="cls-36" d="M245.77,246.79c-.55.38-.95.95-1.12,1.6-.19,1.25,1.13,2.15,2.31,2.63,2.38.93,4.92,1.37,7.48,1.3.29.02.58-.06.82-.23.22-.26.34-.6.32-.94.14-2.39.83-6.8-1.43-7.69s-6.77,1.98-8.37,3.32Z"></path><path class="cls-37" d="M309.18,156.25s-13.18,21.24-30.13,75.3c-2.55,8.13-25.03,10.66-25.03,10.66l5.56,15.3s15.3,1.39,27.36-5.1c12.06-6.49,20.4-31.53,20.4-31.53l1.85-64.63Z"></path><path class="cls-1" d="M309.18,156.25s-13.18,21.24-30.13,75.3c-2.55,8.13-25.03,10.66-25.03,10.66l5.56,15.3s15.3,1.39,27.36-5.1c12.06-6.49,20.4-31.53,20.4-31.53l1.85-64.63Z"></path><path class="cls-36" d="M347.12,122c.16,1.55-.36,3.1-1.43,4.24-.24.29-.55.51-.9.64-1.81.6-1.92-3.11-1.39-4.16.65-1.18,3.48-3.1,3.73-.72Z"></path><path class="cls-36" d="M314.53,119.93c-.16,1.55.36,3.1,1.43,4.23.24.29.55.51.9.64,1.82.59,1.93-3.12,1.4-4.17-.63-1.2-3.45-3.1-3.73-.71Z"></path><path class="cls-33" d="M285.31,452.32c-1.69-1.32-2.62-3.35-3.92-5.06-5.32-7.01-15.43-7.42-23.97-9.59-7.51-1.92-14.45-5.6-20.24-10.75,15.85-1.91,31.88-1,47.81-.1l107.75,6.1c6.04.34,12.11.68,18.02,1.93,1.61.34,3.36.85,4.26,2.24,1.01,1.58.47,3.77-.76,5.18-1.23,1.41-3,2.21-4.73,2.95-17.07,7.26-35.93,11.89-54.17,8.53-1.27-.24-2.71-.64-3.22-1.83-.52-1.18.22-2.67,0-3.98-.44-2.48-3.69-3.05-6.2-3.03l-24,.12c-1.43,0-2.92.04-4.08.83-2.46,1.68-2.15,5.73-4.51,7.55-1.1.83-2.56.98-3.93,1.07-6.34.42-18.69,2.06-24.1-2.17Z"></path><path class="cls-37" d="M339.12,143.96c8.14,3.92,14.29,10.91,20.22,17.73,1.2,1.38,1.75,3.06,2.39,4.76,6.72,18,5.73,29.63,7.88,44.3,1.74,12.02,2.68,36.08,2.68,36.08,0,0-.64,48.36-3.2,56.03l-79.87-1.91s6.08-78.18,6.61-87.74c2.55-46.43,11.92-56.65,18.95-63.05s24.34-6.19,24.34-6.19Z"></path><path class="cls-26" d="M339.12,143.96c8.14,3.92,14.29,10.91,20.22,17.73,1.2,1.38,1.75,3.06,2.39,4.76,6.72,18,5.73,29.63,7.88,44.3,1.74,12.02,2.68,36.08,2.68,36.08,0,0-.64,48.36-3.2,56.03l-79.87-1.91s6.1-75.06,6.39-83.91c1.48-44.95,10.33-60.19,19.17-66.87,7.57-5.75,24.34-6.2,24.34-6.2Z"></path><path class="cls-27" d="M353.57,271.68c-12.11,5.32-24.36,11.73-37.33,9.23-3.01-.57-6.25-1.43-9.02-.11-6.56,3.11-3.88,14.28-9.54,18.84-1.06.97-2.54,1.35-3.94,1-2.38-.8-2.76-3.96-2.72-6.45l.32-19.72c0-1.92.11-3.98,1.28-5.51.81-.94,1.82-1.69,2.94-2.21,11.52-6.27,23.83-10.97,36.59-13.97,6.21-1.43,12.52-2.58,18.63-4.44,3.18-.91,6.27-2.08,9.26-3.51,1.53-.75,9.22-20.92,9.54-19.72,4.28,16.14-2.8,40.78-16,46.58Z"></path><path class="cls-35" d="M310.23,195.28l-11.9-.4s-1.68,16.14,1.36,17.1c3.04.96,10.22.16,10.22.16l.32-16.85Z"></path><path class="cls-34" d="M341.3,149.2s-9.26,8.78-14.38,2.87c-5.12-5.92-4.47-3.68-4.47-3.68l3.52,56.26,15.33-55.45Z"></path><path class="cls-34" d="M328.49,91.09c1.72-2.09,4.18-3.44,6.87-3.74,2.6-.27,5.48.63,6.9,2.83,1.03,1.6,1.17,3.58,1.2,5.5,0,1.78,0,3.62-.81,5.2-.85,1.54-2.24,2.73-3.89,3.33-3.81,1.5-8.33.28-11.28-2.44-2.95-2.72-1.3-7.87,1-10.69Z"></path><path class="cls-25" d="M328.49,91.09c1.72-2.09,4.18-3.44,6.87-3.74,2.6-.27,5.48.63,6.9,2.83,1.03,1.6,1.17,3.58,1.2,5.5,0,1.78,0,3.62-.81,5.2-.85,1.54-2.24,2.73-3.89,3.33-3.81,1.5-8.33.28-11.28-2.44-2.95-2.72-1.3-7.87,1-10.69Z"></path><path class="cls-36" d="M337.67,132.38s.11,12.14,2.87,14.7c2.76,2.56-11.08,14.48-16.93,1.17,0,0,3.4-5.73,2.24-15.44-1.17-9.71,11.83-.42,11.83-.42Z"></path><path class="cls-31" d="M338.1,135.25v2.66s-7.03,10.12-9.9,6.71c-2.87-3.4-2.03-4.16-2.03-4.16l-.32-7.67,12.24,2.45Z"></path><path class="cls-36" d="M344.38,115.02s2.02,18.53-7.88,22.21c-9.9,3.68-15.81-1.6-18.53-10.54-2.72-8.94,1.44-27,11.95-25.21,10.51,1.79,14.46,13.54,14.46,13.54Z"></path><path class="cls-34" d="M345.97,121.24c.46-.63.76-1.37.86-2.15,1.3-7.08-1.25-14.31-6.7-19.01-1.09-.96-2.35-1.71-3.72-2.19-1.37-.39-2.8-.54-4.22-.43-4.46.15-8.77,1.7-12.29,4.44-3.53,2.79-5.73,6.93-6.08,11.41-.12,1.32.09,2.65.62,3.86.55,1.22,1.64,2.11,2.94,2.4,2.29.39,2.92-1.71,4.77-3.12,2.78-2.15,3.67-5.27,10.03-4.74,10.28.87,11.01,12.92,13.78,9.53Z"></path><polygon class="cls-34" points="362.7 302.21 363.97 427.44 363.02 445.01 350.24 445.65 331.07 309.57 315.18 445.88 301.52 445.81 299.77 300.94 362.7 302.21"></polygon><polygon class="cls-32" points="362.7 302.21 363.97 427.44 363.02 445.01 350.24 445.65 330.76 307.97 315.18 445.88 301.52 445.81 299.77 300.94 362.7 302.21"></polygon><polygon class="cls-34" points="373.56 455.23 351.2 454.91 350.24 445.65 363.02 445.01 373.56 455.23"></polygon><polygon class="cls-34" points="291.86 455.23 314.22 454.91 315.18 445.65 302.4 445.01 291.86 455.23"></polygon><path class="cls-37" d="M338.85,144.41s3.62,3.09,0,10.75c-3.62,7.66-13.22,50.93-13.22,50.93l19.17-31.63-2.15-11.92,4.05-3.2s0-11.29-2.15-13.61-4.36-2.19-5.7-1.32Z"></path><path class="cls-37" d="M325.48,142.97s-5.73,1.43-6.71,4.16c-.98,2.72-4.95,10.7-4.95,10.7l2.56,3.51-3.99,4.62,13.24,40.12s-3.41-54.31-2.02-57.82c1.39-3.51,1.88-5.29,1.88-5.29Z"></path><path class="cls-30" d="M338.85,144.41s3.62,3.09,0,10.75c-3.62,7.66-13.22,50.93-13.22,50.93l19.17-31.63-2.15-11.92,4.05-3.2s0-11.29-2.15-13.61-4.36-2.19-5.7-1.32Z"></path><path class="cls-28" d="M325.48,142.97s-5.73,1.43-6.71,4.16c-.98,2.72-4.95,10.7-4.95,10.7l2.56,3.51-3.99,4.62,13.24,40.12s-3.41-54.31-2.02-57.82c1.39-3.51,1.88-5.29,1.88-5.29Z"></path><path class="cls-29" d="M316.37,121.24c-.12-.11-.22-.25-.29-.4-.04-.17-.06-.35-.07-.52-.02-.18-.11-.34-.24-.46-.13-.12-.33-.16-.49-.09-.15.06-.26.19-.3.34-.05.15-.07.31-.07.47-.06.61.03,1.23.27,1.79.23.39.52.73.86,1.02.12.14.29.24.47.26.12,0,.24-.05.34-.12.05-.02.09-.05.11-.09.01-.04.01-.09,0-.14.07-.42.05-.85-.04-1.26-.1-.31-.28-.59-.54-.8Z"></path><path class="cls-11" d="M345.07,123.24c.12-.11.22-.25.29-.4.04-.17.07-.35.07-.53.02-.18.11-.34.24-.46.14-.12.33-.15.5-.09.14.07.25.2.3.35.04.15.06.31.06.47.07.61-.02,1.23-.27,1.79-.22.39-.51.73-.85,1.02-.12.14-.29.24-.47.26-.12,0-.24-.05-.34-.12-.05-.02-.09-.05-.11-.09,0-.05,0-.09,0-.14-.08-.42-.08-.85,0-1.27.11-.32.31-.59.57-.8Z"></path><path class="cls-36" d="M299.67,258.06c-4.84,1.64-9.64,4.62-11.46,9.38-.83,2.15-.83,4.92,1,6.28,1.17.88,2.75.91,4.21.91,2.27.08,4.54-.1,6.77-.55,2.24-.47,4.25-1.71,5.66-3.52,1.28-1.8,1.76-4.22,3.58-5.5,2.11-1.51,5.65-1.15,6.71-3.53.72-1.58-.21-3.55-.92-4.98-1.16-2.37-.49-2.15-3.12-1.79-4.06.52-8.61,2.01-12.43,3.3Z"></path><path class="cls-37" d="M359.34,161.66s17.07,30.46,12.13,74.66c-4.94,44.2-55.33,34.96-55.33,34.96l-4.3-21.01s29.38-1.86,35.24-9.27c5.86-7.42,3.09-50.07,3.09-50.07l9.17-29.27Z"></path><path class="cls-8" d="M359.34,161.66s17.07,30.46,12.13,74.66c-4.94,44.2-55.33,34.96-55.33,34.96l-4.3-21.01s29.38-1.86,35.24-9.27c5.86-7.42,3.09-50.07,3.09-50.07l9.17-29.27Z"></path></g><g id="character_1"><rect class="cls-37" x="214.98" y="369.49" width="6.58" height="32.14"></rect><rect class="cls-9" x="214.98" y="369.49" width="6.58" height="32.14"></rect><path class="cls-34" d="M133.53,463.42c-9.91,0-17.67-9.85-17.67-22.43s7.76-22.43,17.67-22.43,17.67,9.85,17.67,22.43-7.77,22.43-17.67,22.43ZM133.53,427.49c-4.74,0-8.74,6.18-8.74,13.51s4,13.51,8.74,13.51,8.74-6.18,8.74-13.51-4.01-13.51-8.74-13.51h0Z"></path><path class="cls-10" d="M133.53,463.42c-9.91,0-17.67-9.85-17.67-22.43s7.76-22.43,17.67-22.43,17.67,9.85,17.67,22.43-7.77,22.43-17.67,22.43ZM133.53,427.49c-4.74,0-8.74,6.18-8.74,13.51s4,13.51,8.74,13.51,8.74-6.18,8.74-13.51-4.01-13.51-8.74-13.51h0Z"></path><path class="cls-19" d="M135.36,418.67c-8.86,1.15-15.58,10.54-15.58,22.33s6.72,21.17,15.58,22.33c9.02-1.15,15.83-10.54,15.83-22.33s-6.84-21.18-15.83-22.33ZM137.17,454.49c-.62,0-1.23-.11-1.81-.33-.59.22-1.22.33-1.85.33-4.74,0-8.73-6.19-8.73-13.5s3.98-13.51,8.73-13.51c.63,0,1.25.1,1.85.29.59-.2,1.21-.3,1.83-.29,4.64,0,8.6,6.15,8.6,13.51s-3.98,13.51-8.6,13.51h-.02Z"></path><path class="cls-34" d="M83.93,426.51c-1.53,1.47-2.51,4.15-.95,5.56.94.85,2.34.81,3.58.72,8.91-.61,18.63-.48,27.51-1.34,1.25-.12,1.81.57,2.67-.35.49-.52.72-2.93.95-3.58l1.63-4.56c.15-.3.19-.63.13-.96-.15-.35-.43-.63-.78-.78-2.55-1.5-6.99-4.24-10.03-4.14-2.87.09-4.89,2.39-7.6,3.45-5.63,2.18-12.47,1.56-17.1,5.99Z"></path><path class="cls-15" d="M83.93,426.51c-1.53,1.47-2.51,4.15-.95,5.56.94.85,2.34.81,3.58.72,8.91-.61,18.63-.48,27.51-1.34,1.25-.12,1.81.57,2.67-.35.49-.52.72-2.93.95-3.58l1.63-4.56c.15-.3.19-.63.13-.96-.15-.35-.43-.63-.78-.78-2.55-1.5-6.99-4.24-10.03-4.14-2.87.09-4.89,2.39-7.6,3.45-5.63,2.18-12.47,1.56-17.1,5.99Z"></path><path class="cls-34" d="M131.85,426.98c-3.47.13-7.22.53-9.77,2.87-.45.41-.88,1.02-.66,1.59.17.32.45.57.79.72,8.02,4.64,17.97,4.3,26.58,7.72.82.32,1.79.67,2.54.21.37-.29.67-.66.86-1.09,1.28-2.39,2.48-4.83,3.58-7.34.16-.28.22-.6.19-.92-.1-.48-.61-.72-1.05-.92-1.97-.83-3.94-1.64-5.91-2.43-1.75-.72-4.35-2.38-6.23-2.46-1.48-.07-3.17,1.19-4.69,1.5-2.06.36-4.14.55-6.23.55Z"></path><path class="cls-13" d="M131.85,426.98c-3.47.13-7.22.53-9.77,2.87-.45.41-.88,1.02-.66,1.59.17.32.45.57.79.72,8.02,4.64,17.97,4.3,26.58,7.72.82.32,1.79.67,2.54.21.37-.29.67-.66.86-1.09,1.28-2.39,2.48-4.83,3.58-7.34.16-.28.22-.6.19-.92-.1-.48-.61-.72-1.05-.92-1.97-.83-3.94-1.64-5.91-2.43-1.75-.72-4.35-2.38-6.23-2.46-1.48-.07-3.17,1.19-4.69,1.5-2.06.36-4.14.55-6.23.55Z"></path><path class="cls-34" d="M213.26,459.32c-24.26,0-44-26.32-44-58.69s19.74-58.69,44-58.69,44.01,26.33,44.01,58.69-19.77,58.69-44.01,58.69ZM213.26,348.52c-20.63,0-37.42,23.38-37.42,52.11s16.79,52.1,37.42,52.1,37.42-23.38,37.42-52.1-16.76-52.11-37.42-52.11Z"></path><path class="cls-37" d="M272.05,405.85h-138.05v-66.72c-.02-11.65,9.4-21.11,21.04-21.15h66.17v6.58h-66.17c-8.02.03-14.5,6.55-14.49,14.57v60.13h129.35l1.55-1.15v-31.1h6.56v34.39l-5.95,4.44Z"></path><path class="cls-12" d="M272.12,405.85h-138.12v-66.72c-.02-11.65,9.41-21.12,21.06-21.15h66.21v6.58h-66.21c-8.02.03-14.51,6.54-14.5,14.57v60.13h129.41l1.55-1.15v-31.1h6.56v34.39l-5.96,4.44Z"></path><path class="cls-18" d="M272.12,405.85h-138.12v-66.72c-.02-11.65,9.41-21.12,21.06-21.15h66.21v6.58h-66.21c-8.02.03-14.51,6.54-14.5,14.57v60.13h129.41l1.55-1.15v-31.1h6.56v34.39l-5.96,4.44Z"></path><path class="cls-36" d="M187.73,302.58c-.42,1.55-.91,3.15-2.01,4.3s-2.7,1.73-4.24,2.19c-5.96,1.8-12.18,2.72-18,4.97-5.82,2.24-11.37,6.13-13.7,11.91-1.07,2.67-1.18,6.21,1.12,7.95s5.45.76,8.07-.24l33.95-12.93c1.19-.46,2.45-.96,3.22-1.98s.92-2.46,1.01-3.78c.68-9.55,1.36-19.11,2.03-28.66.27-3.79-2.11-14.33-7.06-7.47-1.55,2.15-1.15,8.33-1.59,10.96-.72,4.31-1.66,8.57-2.82,12.78Z"></path><path class="cls-37" d="M289.92,269.44c-.01.67-.29,1.3-.91,1.48-.13.04-2.45.06-2.45.11-1.95-.08-3.85.61-5.3,1.91-1.94,1.68-2.99,4.3-3.2,7.74-.43,7.97-.06,80.29,0,92.57h-143.45v-19.1l104.76-8.76,19.89-49.99h14.69v-20.61c.42-1.22,3.02-7.24,11.13-7.44,1.3-.03,3.81-.57,4.57.86.19.35.29.8.28,1.23Z"></path><path class="cls-14" d="M290.85,269.74c-.01.09-.03.18-.05.27-.29,1.18-.78,1.49-1.88,1.55-1.19.07-2.38.17-3.56.32s-3.23.19-4.12,1.08c-1.93,1.66-2.99,4.26-3.2,7.73-.16,2.59-.21,12.18-.21,24.32v19.38c0,15.22.09,30.85.12,40.66,0,3.65.06,6.52.06,8.21h-143.42v-19.11l104.74-8.75,19.9-49.99h14.7v-20.62c.87-2.35,2.51-4.33,4.64-5.65,1.97-1.17,4.21-1.79,6.49-1.81,1.52-.03,4.39-.65,5.42.83.31.45.42,1.02.35,1.56Z"></path><path class="cls-21" d="M278.05,272.47c-.19,3.2-.21,16.69-.21,32.54v19.38c.06,18.11.15,35.26.19,40.66h-143.42v-19.11l104.74-8.74,19.9-50.02h14.7v-12.39c.87-2.35,2.51-4.33,4.64-5.65-.31,1.08-.49,2.2-.54,3.32Z"></path><path class="cls-37" d="M239.16,243.34s18.4,3.36,25.79,8.12h0l-4.68,23.14.85,1.55s-2.32,51.92-6.84,56.8l-59.58-.11,3.75-38.75-11.74-2.78s12.18-35.22,14.22-38.02c3.09-4.3,13.15-6.63,17.32-8.22s20.91-1.71,20.91-1.71Z"></path><path class="cls-17" d="M239.16,243.34s18.4,3.36,25.79,8.12h0l-4.68,23.14.85,1.55s-2.32,51.92-6.84,56.8l-59.58-.11,4.36-43.08-8.96-1.54s8.88-37.79,11.46-40.12c2.58-2.34,12.54-1.43,16.7-3.04,4.16-1.6,20.88-1.7,20.88-1.7Z"></path><path class="cls-20" d="M250.11,279.88s-5.57,45.14-10.51,50.07c-4.94,4.93-.24,15.47-.24,15.47l15.01-14.09,8.1-43.41-12.36-8.03Z"></path><path class="cls-36" d="M242.26,243.81c-.29,1.64-1.17,1.76-2.05,3.16-.85,1.23-1.95,2.26-3.24,3.02-2.61,1.68-5.73,2.78-8.81,2.29s-8.51-3.77-6.31-5.95c3.29-3.27,1.98-7.75,1.2-8.44-2.94-2.64,4.22-2.64,7.82-4.3,2.87-1.3,6.12-6.25,9.18-4.89,2.78,1.27,2.62,12.72,2.2,15.1Z"></path><path class="cls-16" d="M236.5,242.32c-1.16,1.24-2.56,2.21-4.13,2.87-1.59.65-3.39.54-4.89-.29-1.74-1.07-2.5-3.17-3.15-5.11-.26-.77-.47-1.74.14-2.29.2-.16.42-.28.66-.36l8.86-3.48c1.41-.63,2.9-1.06,4.44-1.27,2.87-.24,4.21.95,2.87,3.58-1.26,2.35-2.88,4.49-4.8,6.35Z"></path><path class="cls-37" d="M195.36,354.25l-.59.1c-1.4.6-2.74,1.32-4.02,2.15l9.42-.09c22.63-.24,35.57-.47,38.3-1.81,1.35-.7,2.66-1.48,3.92-2.34-14.72,1.11-46.63,1.96-47.02,2Z"></path><path class="cls-37" d="M249.53,354.71c-6.95,1.52-49.33,2.7-53.78,2.8-1.88.82-6.03,3.13-6.81,5.66-1.25,4.06-28.29,64.09-29.44,66.63l-.57,1.28-21.6-5.4.56-1.68c2.44-7.51,24.11-73.21,29.84-78.31,5.3-4.74,18.37-13.93,29.7-14.95,10.48-.89,55.03.49,56.94.56l1.43.04.16,1.43c.21,2.05,1.86,20.13-6.43,21.94Z"></path><path class="cls-23" d="M249.53,354.71c-6.95,1.52-49.33,2.7-53.78,2.8-1.88.82-6.03,3.13-6.81,5.66-1.25,4.06-28.29,64.09-29.44,66.63l-.57,1.28-21.6-5.4.56-1.68c1.88-5.8,15.18-46.17,23.81-66.69,2.57-6.09,4.71-10.44,6.03-11.62,4.44-3.98,14.39-11.1,24.17-13.86,1.8-.55,3.66-.91,5.53-1.09,10.48-.89,55.03.49,56.94.56l1.43.04.16,1.43c.21,2.05,1.86,20.13-6.43,21.94Z"></path><path class="cls-37" d="M252.92,338.28c0,5.7-.92,12.51-4.08,13.2-2.13.36-4.29.61-6.45.75,4.38-3.06,9.29-8,10.53-13.96Z"></path><path class="cls-37" d="M252.92,338.21c0-1.31-.06-2.6-.13-3.68-7.94-.24-45.86-1.32-55.1-.49-1.81.18-3.59.54-5.33,1.08-8.5,2.54-17.62,8.76-22.46,13.05-.72.62-1.78,2.6-3.13,5.63-.46.98-.95,2.11-1.43,3.32-7.84.39-13.86.92-15.94,1.81-6.22,2.69-19.03,40.24-25.65,63.22l-.46,1.65-19.83-6.25.42-1.55c.72-2.41,16.77-58.88,19.83-66.59,3.23-8.03,12.78-11.92,19.73-14.75l.95-.39c6.91-2.83,96.73-2.87,106.96-2.87h1.35l.27,1.35c.34,1.81.32,3.66-.05,5.46Z"></path><path class="cls-7" d="M191.9,331.83c-9.78,2.77-19.72,9.88-24.17,13.86-1.32,1.18-3.46,5.53-6.03,11.62-6.05.37-10.57.86-12.32,1.62-6.22,2.69-19.03,40.24-25.65,63.22l-.46,1.65-19.83-6.25.42-1.55c.72-2.41,16.77-58.88,19.83-66.59,3.23-8.03,12.78-11.92,19.73-14.75l.95-.39c3.22-1.32,24.6-2.04,47.52-2.44Z"></path><path class="cls-34" d="M274.04,340.35h-.27c-.72,0-1.38-.06-2.08-.06-25.16,0-45.64,27.07-45.64,60.33s20.48,60.34,45.64,60.34c.72,0,1.38-.04,2.08-.06h.27c24.1-1.62,43.33-28.03,43.33-60.27s-19.27-58.62-43.33-60.26ZM271.7,451.07c-19.69,0-35.76-22.63-35.76-50.46s16.07-50.45,35.76-50.45c.72,0,1.48,0,2.21.1,18.71,1.61,33.6,23.58,33.6,50.35s-14.89,48.72-33.6,50.35c-.76.06-1.51.1-2.24.1h.04Z"></path><path class="cls-24" d="M274.04,340.35h-.27c-24.07,1.65-43.3,28.06-43.3,60.26s19.23,58.65,43.3,60.27h.27c24.1-1.62,43.33-28.03,43.33-60.27s-19.27-58.62-43.33-60.26ZM276.11,451.07c-.72,0-1.48,0-2.21-.1-.72.06-1.48.1-2.21.1-19.69,0-35.76-22.63-35.76-50.46s16.07-50.45,35.76-50.45c.72,0,1.48,0,2.21.1.72-.06,1.48-.1,2.21-.1,19.73,0,35.77,22.63,35.77,50.45s-16.07,50.46-35.8,50.46h.04Z"></path><path class="cls-34" d="M192.87,463.42c-9.91,0-17.67-9.85-17.67-22.43s7.76-22.43,17.67-22.43,17.67,9.85,17.67,22.43-7.76,22.43-17.67,22.43ZM192.87,427.49c-4.74,0-8.74,6.18-8.74,13.51s4.01,13.51,8.74,13.51,8.74-6.18,8.74-13.51-4.01-13.51-8.74-13.51h0Z"></path><path class="cls-22" d="M194.7,418.67c-.61-.07-1.23-.1-1.84-.1-9.92,0-17.65,9.85-17.65,22.43s7.74,22.43,17.65,22.43c.62,0,1.23-.03,1.84-.1,9.02-1.15,15.84-10.54,15.84-22.33s-6.82-21.18-15.84-22.33ZM192.86,454.49c-4.74,0-8.73-6.19-8.73-13.5s3.98-13.51,8.73-13.51c.63,0,1.25.1,1.84.29,3.88,1.35,6.91,6.85,6.91,13.21s-3.03,11.85-6.91,13.17c-.59.23-1.21.34-1.84.34h0Z"></path><path class="cls-6" d="M194.7,418.67c-8.86,1.15-15.58,10.54-15.58,22.33s6.72,21.17,15.58,22.33c9.02-1.15,15.84-10.54,15.84-22.33s-6.82-21.18-15.84-22.33ZM196.51,454.49c-.62,0-1.23-.11-1.81-.33-.59.22-1.21.33-1.84.33-4.74,0-8.73-6.19-8.73-13.5s3.98-13.51,8.73-13.51c.63,0,1.25.1,1.84.29.58-.19,1.2-.29,1.81-.29,4.64,0,8.6,6.15,8.6,13.51s-3.96,13.51-8.6,13.51h0Z"></path><path class="cls-38" d="M259.65,251.45c-.6,0-1.19.1-1.75.3-1.71.64-2.87,2.19-3.35,4.5h0c-2.56,12.22,2.35,25.11,6.57,35.66,5.16-.6,10.21-1.94,14.99-3.98.24-.1.86-.36.98-.57.09-.41.09-.84,0-1.25-.87-5.59-2.59-11.14-4.26-16.52l-.18-.59c-1.62-5.22-3.83-12.39-8.12-15.69-1.38-1.14-3.1-1.79-4.89-1.86Z"></path><path class="cls-37" d="M278.77,290.67c-.61.9-1.5,1.57-2.54,1.91-5.47,2.34-11.27,3.8-17.2,4.35l-1.22.13-.46-1.15c-4.48-11.17-10.03-25.08-7.22-38.69.72-3.42,2.67-5.9,5.44-6.91,3.02-1.12,6.68-.37,9.78,2.04,5.1,3.92,7.51,11.66,9.25,17.32l.16.59c1.71,5.47,3.46,11.16,4.38,16.96.27,1.16.13,2.38-.39,3.45Z"></path><path class="cls-37" d="M198.69,413.69h-6.58v-63.43c.01-11.68,9.47-21.14,21.15-21.15h66.51v6.58h-66.51c-8.04,0-14.56,6.52-14.57,14.57v63.43Z"></path><path class="cls-37" d="M158.31,446.95c-1.09,0-2.17-.14-3.23-.39-6-1.43-17.41-7.05-20.42-8.6l-53.29.31v-6.59l54.89-.31.72.37c.14.06,13.61,6.94,19.67,8.38,2.07.63,4.32,0,5.77-1.62.95-3.88,5.95-24.25,10.42-37.93,1.83-5.6,4.93-9.5,9.23-11.59,6.52-3.18,13.28-.78,13.57-.67l-2.26,6.22c-.05,0-4.52-1.54-8.5.43-2.61,1.29-4.56,3.88-5.8,7.7-4.85,14.84-10.38,37.84-10.44,38.07l-.12.52-.29.46c-2.21,3.3-5.93,5.28-9.9,5.26Z"></path><path class="cls-2" d="M158.31,446.95c-1.09,0-2.17-.14-3.23-.39-6-1.43-17.41-7.05-20.42-8.6l-53.29.31v-6.59l54.89-.31.72.37c.14.06,13.61,6.94,19.67,8.38,2.07.63,4.32,0,5.77-1.62.95-3.88,5.95-24.25,10.42-37.93,1.83-5.6,4.93-9.5,9.23-11.59,6.52-3.18,13.28-.78,13.57-.67l-2.26,6.22c-.05,0-4.52-1.54-8.5.43-2.61,1.29-4.56,3.88-5.8,7.7-4.85,14.84-10.38,37.84-10.44,38.07l-.12.52-.29.46c-2.21,3.3-5.93,5.28-9.9,5.26Z"></path><ellipse class="cls-37" cx="274.68" cy="400.93" rx="6.64" ry="11.05"></ellipse><ellipse class="cls-37" cx="216.88" cy="400.93" rx="6.64" ry="11.05"></ellipse><ellipse class="cls-4" cx="276.13" cy="400.93" rx="5.19" ry="11.05"></ellipse><ellipse class="cls-5" cx="218.3" cy="400.93" rx="5.26" ry="11.05"></ellipse><polygon class="cls-34" points="82.2 438.4 103.99 447.45 158 446.52 133.89 437.01 82.2 438.4"></polygon><path class="cls-36" d="M213.09,222.46c.44,3.22.9,6.51,2.4,9.38,2.87,5.47,9.39,8.55,15.55,7.97,6.15-.58,11.73-4.49,15.05-9.69,3.32-5.21,4.51-11.6,4.09-17.76-.28-4.07-1.28-8.18-3.58-11.56-3.76-5.58-10.45-8.43-16.98-10.03-3.22-.8-6.57-1.38-9.85-.9-15.33,2.21-8.02,22.66-6.67,32.59Z"></path><path class="cls-34" d="M207.95,201.63c-.26-3.53-.2-7.07.17-10.59.07-.98.31-2.15,1.24-2.49.37-.12.8-.09,1.1-.33.27-.32.41-.73.4-1.15.32-1.57,1.2-2.98,2.47-3.96,1.14-1.07,2.58-1.76,4.12-2,2.67-.3,5.12,1.35,7.64,2.29,3.1,1.16,6.45,1.27,9.79,1.3s6.68,0,9.84.97c3.17.97,6.19,3.02,7.4,6.1.11.36.29.71.52,1.01.25.23.53.43.83.59,1.96,1.25,2.51,3.85,2.63,6.18.31,6.2-1.18,12.35-4.27,17.73-.08.19-.22.36-.4.47-.37.14-.79,0-.99-.34-.19-.34-.29-.72-.29-1.1-.37-3.53-1.03-7.01-1.98-10.43-.44-1.6-1.13-3.39-2.69-3.95-.7-.19-1.43-.25-2.15-.17-8.28.31-16.58-1.64-24.82-.76-2.51.27-5.34,1.06-6.45,3.33-.59,1.21-.54,2.57-.58,3.87s-.08,3.29-1.23,1.43c-1.4-2.33-2.02-5.35-2.29-8Z"></path><path class="cls-3" d="M198.69,413.69h-6.58v-63.43c.01-11.68,9.47-21.14,21.15-21.15h66.51v6.58h-66.51c-8.04,0-14.56,6.52-14.57,14.57v63.43Z"></path><path class="cls-36" d="M276.23,292.58s8.49,33.02-.78,35.18c-9.27,2.16-58.57,1.24-58.57,1.24,0,0,3.87-9.2,12.52-9.51,8.66-.31,31.21-3.17,31.21-3.17l-1.36-20.92,16.98-2.82Z"></path></g></svg>